<svg id="logo" width="1007" height="85" viewBox="0 0 1007 85" fill="none" xmlns="http://www.w3.org/2000/svg">
<path fill-rule="evenodd" clip-rule="evenodd" d="M28.612 52.944H46.276V34.512H28.612V23.632H51.908L53.7 2.51199H1.21997V82H28.612V52.944ZM23.612 77V47.944H41.276V39.512H23.612V18.632H47.3143L48.2578 7.51199H6.21997V77H23.612ZM132.219 10.704C126.672 4.38933 117.371 1.23199 104.315 1.23199C91.3443 1.23199 82.0003 4.43199 76.283 10.832C70.651 17.232 67.835 27.5573 67.835 41.808C67.835 55.9733 70.651 66.4267 76.283 73.168C82.0003 79.9093 91.259 83.28 104.059 83.28C116.944 83.28 126.246 79.8667 131.963 73.04C137.766 66.2133 140.667 55.7173 140.667 41.552C140.667 27.3013 137.851 17.0187 132.219 10.704ZM80.1081 69.948C84.5125 75.1308 92.0613 78.28 104.059 78.28C116.147 78.28 123.727 75.0863 128.13 69.8297L128.141 69.8157L128.153 69.8018C132.851 64.2752 135.667 55.1824 135.667 41.552C135.667 27.7511 132.902 18.9813 128.487 14.0321L128.475 14.0179L128.462 14.0037C124.286 9.24851 116.724 6.23199 104.315 6.23199C92.0493 6.23199 84.3979 9.26346 80.024 14.1494C75.5914 19.1972 72.835 28.029 72.835 41.808C72.835 55.4608 75.5748 64.5116 80.1081 69.948ZM115.938 24.3052C113.599 19.6688 108.848 18.248 104.315 18.248C99.8968 18.248 95.033 19.5643 92.7674 24.2843C91.8794 26.1342 91.4253 28.4967 91.1541 30.9147C90.8696 33.4514 90.739 36.5446 90.739 40.144V45.776C90.739 49.466 90.8806 52.6364 91.1902 55.2321C91.4844 57.699 91.9804 60.1377 92.9669 62.0348C95.3597 66.6363 100.22 67.928 104.699 67.928C108.998 67.928 114.073 66.7634 116.284 61.9393C117.113 60.1314 117.524 57.7909 117.769 55.4073C118.028 52.8898 118.147 49.7912 118.147 46.16V40.272C118.147 36.664 118.005 33.5541 117.694 30.997C117.4 28.5759 116.906 26.1856 115.938 24.3052ZM217.1 37.9931L217.112 37.9718C218.26 35.9054 219.043 32.7446 219.043 28.112C219.043 20.1529 216.931 15.3573 213.715 12.5511L213.696 12.5343L213.677 12.5173C210.3 9.50905 204.459 7.51199 195.115 7.51199H166.195V77H182.435V49.608H193.24L201.176 77H218.636L207.784 46.3128L211.053 44.1601C214.022 42.2048 215.941 40.1287 217.089 38.0145L217.1 37.9931ZM225.707 82H197.419L189.483 54.608H187.435V82H161.195V2.51199H195.115C205.014 2.51199 212.31 4.60266 217.003 8.784C221.696 12.88 224.043 19.3227 224.043 28.112C224.043 33.232 223.19 37.328 221.483 40.4C219.862 43.3867 217.302 46.032 213.803 48.336L225.707 82ZM186.923 23.504H190.251C190.863 23.504 191.42 23.5687 191.923 23.6981C192.892 23.9476 193.657 24.4376 194.219 25.168C195.072 26.2773 195.499 28.2827 195.499 31.184C195.499 34.0853 195.072 36.1333 194.219 37.328C193.713 38.0589 192.948 38.549 191.923 38.7984C191.393 38.9275 190.792 38.992 190.123 38.992H186.923V23.504ZM181.923 18.504H190.251C193.119 18.504 196.125 19.4456 198.182 22.1194C200.126 24.6465 200.499 28.1549 200.499 31.184C200.499 34.2637 200.106 37.6663 198.309 40.2039C196.23 43.1803 192.923 43.992 190.123 43.992H181.923V18.504ZM308.456 82H332.648L329.704 2.51199H296.04L290.152 38.48H289L282.984 2.51199H248.936L245.864 82H269.8V44.112H270.44L277.864 82H300.264L307.816 44.112H308.456V82ZM296.162 77L303.714 39.112H313.456V77H327.459L324.886 7.51199H300.288L294.4 43.48H284.767L278.751 7.51199H253.746L251.061 77H264.8V39.112H274.555L281.979 77H296.162ZM381.379 62.3458C379.22 59.9174 378.58 56.7792 378.58 53.84V7.51199H360.676V55.632C360.676 63.7956 363.105 69.1005 367.241 72.51C371.561 76.072 378.595 78.28 389.212 78.28C399.611 78.28 406.796 76.0917 411.474 72.4305C415.848 69.0077 418.388 63.6567 418.388 55.376V7.51199H400.996V53.712C400.996 56.6962 400.344 59.8682 398.161 62.318C395.881 64.8779 392.745 65.752 389.724 65.752C386.743 65.752 383.637 64.8865 381.379 62.3458ZM474.112 61.392V2.51199H446.72V82H494.464L496.256 61.392H474.112ZM490.802 66.392H469.112V7.51199H451.72V77H489.88L490.802 66.392ZM549.899 69.712L552.459 82H579.339L562.827 2.51199H523.787L507.275 82H533.003L535.691 69.712H549.899ZM528.978 77L531.666 64.712H553.965L556.525 77H573.194L558.759 7.51199H527.855L513.42 77H528.978ZM553.975 58.2H531.586L538.453 21.576H547.284L553.975 58.2ZM542.603 26.576H543.115L547.979 53.2H537.611L542.603 26.576ZM619.848 2.51199H594.76L604.616 82H635.08L640.2 49.744H641.224L647.24 82H677.704L686.152 2.51199H661.96L659.528 38.992H658.632L653.256 2.51199H629.064L624.2 38.992H623.048L619.848 2.51199ZM633.441 7.51199L628.577 43.992H618.467L615.267 7.51199H600.418L609.034 77H630.811L635.931 44.744H645.378L651.394 77H673.207L680.592 7.51199H666.638L664.206 43.992H654.315L648.939 7.51199H633.441ZM744.124 69.712L746.684 82H773.564L757.052 2.51199H718.012L701.5 82H727.228L729.916 69.712H744.124ZM723.203 77L725.891 64.712H748.19L750.75 77H767.419L752.984 7.51199H722.08L707.645 77H723.203ZM748.2 58.2H725.811L732.678 21.576H741.509L748.2 58.2ZM736.828 26.576H737.34L742.204 53.2H731.836L736.828 26.576ZM802.937 24.144V82H830.201V24.144H847.097L848.633 2.51199H786.297L785.145 24.144H802.937ZM790.418 19.144H807.937V77H825.201V19.144H842.439L843.265 7.51199H791.038L790.418 19.144ZM887.999 59.6344L887.986 59.6085C886.019 55.5589 885.308 49.8701 885.308 43.216C885.308 36.5944 886.011 30.9193 888 26.9245C889.028 24.8164 890.49 22.9393 892.513 21.6037C894.567 20.2473 896.887 19.656 899.268 19.656C902.358 19.656 906.946 20.5376 912.757 22.0781L915.206 8.86892C909.636 7.10089 904.115 6.23199 898.628 6.23199C886.807 6.23199 879.388 9.53875 875.039 15.0731L875.031 15.0846L875.021 15.096C870.365 20.9523 867.66 29.9481 867.66 42.832C867.66 55.6607 870.249 64.4652 874.63 70.0469C878.828 75.21 885.786 78.28 896.708 78.28C902.59 78.28 908.714 77.4611 915.091 75.7896L912.911 64.9588C907.366 66.1284 902.931 66.776 899.78 66.776C897.357 66.776 894.97 66.2561 892.835 64.9821C890.684 63.6992 889.101 61.8378 888.012 59.6601L887.999 59.6344ZM911.924 60.0564C913.443 59.7358 915.069 59.3703 916.804 58.96L920.9 79.312C912.537 81.9573 904.473 83.28 896.708 83.28C884.847 83.28 876.185 79.9093 870.724 73.168C865.348 66.3413 862.66 56.2293 862.66 42.832C862.66 29.3493 865.476 19.0667 871.108 11.984C876.74 4.81599 885.913 1.23199 898.628 1.23199C906.052 1.23199 913.476 2.68266 920.9 5.584L916.676 28.368C914.955 27.8639 913.344 27.4111 911.843 27.0097C905.974 25.4406 901.782 24.656 899.268 24.656C896.196 24.656 893.935 26.1493 892.484 29.136C891.033 32.0373 890.308 36.7307 890.308 43.216C890.308 49.7013 891.033 54.4373 892.484 57.424C893.935 60.3253 896.367 61.776 899.78 61.776C902.447 61.776 906.495 61.2028 911.924 60.0564ZM978.736 32.208H964.912V2.51199H937.52V82H964.912V53.968H978.736V82H1005.74V2.51199H978.736V32.208ZM983.736 7.51199V37.208H959.912V7.51199H942.52V77H959.912V48.968H983.736V77H1000.74V7.51199H983.736ZM104.315 23.248C107.984 23.248 110.374 24.3573 111.483 26.576C112.592 28.7093 113.147 33.2747 113.147 40.272V46.16C113.147 53.2427 112.678 57.808 111.739 59.856C110.8 61.904 108.454 62.928 104.699 62.928C100.944 62.928 98.5123 61.8613 97.403 59.728C96.2936 57.5947 95.739 52.944 95.739 45.776V40.144C95.739 33.1467 96.251 28.5813 97.275 26.448C98.299 24.3147 100.646 23.248 104.315 23.248ZM389.724 60.752C385.628 60.752 383.58 58.448 383.58 53.84V2.51199H355.676V55.632C355.676 74.064 366.855 83.28 389.212 83.28C400.22 83.28 408.668 80.976 414.556 76.368C420.444 71.76 423.388 64.7627 423.388 55.376V2.51199H395.996V53.712C395.996 58.4053 393.905 60.752 389.724 60.752Z" stroke="black" stroke-width="2"/>
</svg>
